<svg width="100" height="50" viewBox="0 0 100 50" xmlns="http://www.w3.org/2000/svg">
  <path d="M0 25a25 25 0 0 1 50 0 25 25 0 0 1 50 0" fill="none" stroke="#2b2b2b" stroke-width="0.5" opacity="0.1"/>
  <path d="M0 25a20 20 0 0 1 40 0 20 20 0 0 1 40 0 20 20 0 0 1 20 0" fill="none" stroke="#2b2b2b" stroke-width="0.5" opacity="0.1" transform="translate(5,0)"/>
  <path d="M0 25a15 15 0 0 1 30 0 15 15 0 0 1 30 0 15 15 0 0 1 30 0 15 15 0 0 1 10 0" fill="none" stroke="#2b2b2b" stroke-width="0.5" opacity="0.1" transform="translate(10,0)"/>
  <path d="M0 25a10 10 0 0 1 20 0 10 10 0 0 1 20 0 10 10 0 0 1 20 0 10 10 0 0 1 20 0 10 10 0 0 1 20 0" fill="none" stroke="#2b2b2b" stroke-width="0.5" opacity="0.1" transform="translate(15,0)"/>
</svg>
